<svg xmlns="http://www.w3.org/2000/svg" xmlns:xlink="http://www.w3.org/1999/xlink" width="100%" height="100%" version="1.1" viewBox="0 0 478 421" xml:space="preserve" style="fill-rule:evenodd;clip-rule:evenodd;stroke-linecap:round;stroke-linejoin:round;stroke-miterlimit:1.5"><g id="Artboard1" transform="matrix(1,0,0,1,-8.41029,-97.3662)"><rect width="477.448" height="420.746" x="8.41" y="97.366" style="fill:none"/><clipPath id="_clip1"><rect width="477.448" height="420.746" x="8.41" y="97.366"/></clipPath><g clip-path="url(#_clip1)"><g><g><path d="M477.912,321.432C485.321,271.209 516.72,274.095 530.435,278.248C531.128,278.458 548.308,282.853 556.931,303.081C569.788,333.239 551.888,355.428 533.856,374.512C515.691,393.737 504.092,397.829 484.623,412.248C482.614,413.736 450.485,392.362 433.354,376.475C413.578,358.134 388.474,331.411 404.021,301.288C417.89,274.417 432.66,276.437 443.852,278.353C478.292,284.248 477.912,321.432 477.912,321.432Z" transform="matrix(1,0,0,1,-149.59,0.36622) matrix(1,0,0,1,-82.1114,-41.5367)" style="fill:none;stroke:#96dbdb;stroke-width:5px"/></g><g><path d="M443.852,278.353L442.789,207.944" transform="matrix(1,0,0,1,-149.59,0.36622) matrix(1.00008,0.00499021,0.00499021,1.33056,-77.8863,-135.764)" style="fill:none;stroke:#96dbdb;stroke-width:4.23px"/></g><g><path d="M462.186,285.317L461.774,166.419" transform="matrix(1,0,0,1,-149.59,0.36622) matrix(1,0.00084838,0.00084838,1.24538,-77.1463,-106.309)" style="fill:none;stroke:#96dbdb;stroke-width:4.42px"/></g><g><path d="M491.064,288.006L488.206,166.167" transform="matrix(1,0,0,1,-149.59,0.36622) matrix(1.00013,0.00547368,0.00547368,1.23328,-86.3697,-107.723)" style="fill:none;stroke:#96dbdb;stroke-width:4.43px"/></g><g><path d="M509.424,277.126L507.187,208.479" transform="matrix(1,0,0,1,-149.59,0.36622) matrix(1.00038,0.0117266,0.0117266,1.35987,-84.4167,-147.077)" style="fill:none;stroke:#96dbdb;stroke-width:4.15px"/></g><g><path d="M467.273,403.315L469.105,517.949" transform="matrix(1,0,0,1,-149.59,0.36622) matrix(1.00008,0.00501373,0.00501373,1.31368,-79.0996,-167.172)" style="fill:none;stroke:#96dbdb;stroke-width:4.26px"/></g><g><path d="M500.115,401.96L501.795,517.788" transform="matrix(1,0,0,1,-149.59,0.36622) matrix(1.00006,0.00438004,0.00438004,1.30191,-89.3799,-161.437)" style="fill:none;stroke:#96dbdb;stroke-width:4.29px"/></g><g><path d="M453.463,393.236L455.037,488.499" transform="matrix(1,0,0,1,-149.59,0.36622) matrix(0.999998,-0.00010035,-0.00010035,0.993927,-82.1205,-39.3204)" style="fill:none;stroke:#96dbdb;stroke-width:5.02px"/></g><g><path d="M516.202,391.695L518.654,486.323" transform="matrix(1,0,0,1,-149.59,0.36622) matrix(0.999995,-0.00017692,-0.00017692,0.99317,-85.0917,-36.0856)" style="fill:none;stroke:#96dbdb;stroke-width:5.02px"/></g><g><path d="M630.453,303.063L557.696,303.22" transform="matrix(1,0,0,1,-149.59,0.36622) matrix(1.14427,-0.00030986,-0.00030986,1,-162.479,-41.3641)" style="fill:none;stroke:#96dbdb;stroke-width:4.65px"/></g><g><path d="M561.161,317.852L651.146,317.145" transform="matrix(1,0,0,1,-149.59,0.36622) matrix(1.68179,-0.0053633,-0.0053633,1.00004,-463.002,-38.5405)" style="fill:none;stroke:#96dbdb;stroke-width:3.63px"/></g><g><path d="M561.146,330.266L652.193,330.041" transform="matrix(1,0,0,1,-149.59,0.36622) matrix(1.71865,-0.00177449,-0.00177449,1,-486.952,-35.5288)" style="fill:none;stroke:#96dbdb;stroke-width:3.56px"/></g><g><path d="M557.693,340.985L632.117,341.863" transform="matrix(1,0,0,1,-149.59,0.36622) matrix(1.24293,-0.0125533,0.0152716,0.999921,-229.034,-21.8767)" style="fill:none;stroke:#96dbdb;stroke-width:4.42px"/></g><g><path d="M401.215,305.736L314.565,303.443" transform="matrix(1,0,0,1,-149.59,0.36622) matrix(0.958765,-0.0439007,0.0435687,0.999023,-77.6194,-26.3387)" style="fill:none;stroke:#96dbdb;stroke-width:5.11px"/></g><g><path d="M398.883,316.667L241.75,319.289" transform="matrix(1,0,0,1,-149.59,0.36622) matrix(0.997249,4.59e-05,4.59e-05,0.999999,-80.1891,-39.9505)" style="fill:none;stroke:#96dbdb;stroke-width:5.01px"/></g><g><path d="M400.186,329.096L242.971,332.286" transform="matrix(1,0,0,1,-149.59,0.36622) matrix(1,0,0,1,-80.0509,-35.7515)" style="fill:none;stroke:#96dbdb;stroke-width:5px"/></g><g><path d="M404.188,340.405L314.536,343.662" transform="matrix(1,0,0,1,-149.59,0.36622) matrix(1,0,0,1,-73.6547,-27.3974)" style="fill:none;stroke:#96dbdb;stroke-width:5px"/></g></g></g></g></svg>